# Blender 4.1.1
# www.blender.org
mtllib new.mtl
o newex
v 5.322299 -0.800000 0.000000
v 5.322299 -0.800000 0.300000
v 5.688965 -3.000000 0.000000
v 5.688965 -3.000000 0.300000
v 5.615331 -3.441807 0.000000
v 5.615331 -3.441807 0.300000
v 4.715542 -1.642229 0.000000
v 4.715542 -1.642229 0.300000
v 4.675972 -1.572142 0.000000
v 4.675972 -1.572142 0.300000
v 4.629560 -1.506386 0.000000
v 4.629560 -1.506386 0.300000
v 4.576775 -1.445626 0.000000
v 4.576775 -1.445626 0.300000
v 4.518152 -1.390477 0.000000
v 4.518152 -1.390477 0.300000
v 4.454285 -1.341498 0.000000
v 4.454285 -1.341498 0.300000
v 4.385820 -1.299184 0.000000
v 4.385820 -1.299184 0.300000
v 4.313449 -1.263964 0.000000
v 4.313449 -1.263964 0.300000
v 4.237906 -1.236193 0.000000
v 4.237906 -1.236193 0.300000
v 4.159955 -1.216154 0.000000
v 4.159955 -1.216154 0.300000
v 4.080384 -1.204049 0.000000
v 4.080384 -1.204049 0.300000
v 4.000000 -1.200000 0.000000
v 4.000000 -1.200000 0.300000
v -5.322299 -1.200000 0.000000
v -5.322299 -1.200000 0.300000
v -5.688965 1.000000 0.000000
v -5.688965 1.000000 0.300000
v -5.615331 1.441807 0.000000
v -5.615331 1.441807 0.300000
v -4.715542 -0.357771 0.000000
v -4.715542 -0.357771 0.300000
v -4.675972 -0.427858 0.000000
v -4.675972 -0.427858 0.300000
v -4.629560 -0.493614 0.000000
v -4.629560 -0.493614 0.300000
v -4.576775 -0.554374 0.000000
v -4.576775 -0.554374 0.300000
v -4.518152 -0.609523 0.000000
v -4.518152 -0.609523 0.300000
v -4.454285 -0.658502 0.000000
v -4.454285 -0.658502 0.300000
v -4.385820 -0.700816 0.000000
v -4.385820 -0.700816 0.300000
v -4.313449 -0.736036 0.000000
v -4.313449 -0.736036 0.300000
v -4.237906 -0.763807 0.000000
v -4.237906 -0.763807 0.300000
v -4.159955 -0.783846 0.000000
v -4.159955 -0.783846 0.300000
v -4.080384 -0.795951 0.000000
v -4.080384 -0.795951 0.300000
v -4.000000 -0.800000 0.000000
v -4.000000 -0.800000 0.300000
v 5.322299 -0.800000 0.000000
v 5.322299 -0.800000 0.300000
v -3.505573 0.800000 0.000000
v -3.505573 0.800000 0.300000
v 5.322299 0.800000 0.000000
v 5.322299 0.800000 0.300000
v 5.482674 0.791942 0.000000
v 5.482674 0.791942 0.300000
v 5.641434 0.767850 0.000000
v 5.641434 0.767850 0.300000
v 5.796980 0.727965 0.000000
v 5.796980 0.727965 0.300000
v 5.947745 0.672690 0.000000
v 5.947745 0.672690 0.300000
v 6.092210 0.602582 0.000000
v 6.092210 0.602582 0.300000
v 6.228920 0.518346 0.000000
v 6.228920 0.518346 0.300000
v 6.356498 0.420832 0.000000
v 6.356498 0.420832 0.300000
v 6.473660 0.311021 0.000000
v 6.473660 0.311021 0.300000
v 6.579224 0.190019 0.000000
v 6.579224 0.190019 0.300000
v 6.672128 0.059045 0.000000
v 6.672128 0.059045 0.300000
v 6.751437 -0.080581 0.000000
v 6.751437 -0.080581 0.300000
v 6.816350 -0.227453 0.000000
v 6.816350 -0.227453 0.300000
v 6.866215 -0.380093 0.000000
v 6.866215 -0.380093 0.300000
v 6.900528 -0.536962 0.000000
v 6.900528 -0.536962 0.300000
v 7.267195 -2.736962 0.000000
v 7.267195 -2.736962 0.300000
v 7.286541 -2.911965 0.000000
v 7.286541 -2.911965 0.300000
v 7.286541 -3.088035 0.000000
v 7.286541 -3.088035 0.300000
v 7.267195 -3.263038 0.000000
v 7.267195 -3.263038 0.300000
v 7.193561 -3.704845 0.000000
v 7.193561 -3.704845 0.300000
v 7.160814 -3.855910 0.000000
v 7.160814 -3.855910 0.300000
v 7.113643 -4.003110 0.000000
v 7.113643 -4.003110 0.300000
v 7.052487 -4.145071 0.000000
v 7.052487 -4.145071 0.300000
v 6.977919 -4.280468 0.000000
v 6.977919 -4.280468 0.300000
v 6.890633 -4.408039 0.000000
v 6.890633 -4.408039 0.300000
v 6.791444 -4.526591 0.000000
v 6.791444 -4.526591 0.300000
v 6.681279 -4.635018 0.000000
v 6.681279 -4.635018 0.300000
v 6.561165 -4.732309 0.000000
v 6.561165 -4.732309 0.300000
v 6.432223 -4.817556 0.000000
v 6.432223 -4.817556 0.300000
v 6.295657 -4.889963 0.000000
v 6.295657 -4.889963 0.300000
v 6.152742 -4.948853 0.000000
v 6.152742 -4.948853 0.300000
v 6.004810 -4.993678 0.000000
v 6.004810 -4.993678 0.300000
v 5.853244 -5.024019 0.000000
v 5.853244 -5.024019 0.300000
v 5.699457 -5.039594 0.000000
v 5.699457 -5.039594 0.300000
v 5.544885 -5.040255 0.000000
v 5.544885 -5.040255 0.300000
v 5.390971 -5.025998 0.000000
v 5.390971 -5.025998 0.300000
v 5.239150 -4.996956 0.000000
v 5.239150 -4.996956 0.300000
v 5.090840 -4.953399 0.000000
v 5.090840 -4.953399 0.300000
v 4.947426 -4.895734 0.000000
v 4.947426 -4.895734 0.300000
v 4.810246 -4.824499 0.000000
v 4.810246 -4.824499 0.300000
v 4.680579 -4.740359 0.000000
v 4.680579 -4.740359 0.300000
v 4.559636 -4.644100 0.000000
v 4.559636 -4.644100 0.300000
v 4.448546 -4.536620 0.000000
v 4.448546 -4.536620 0.300000
v 4.348347 -4.418921 0.000000
v 4.348347 -4.418921 0.300000
v 4.259972 -4.292103 0.000000
v 4.259972 -4.292103 0.300000
v 4.184247 -4.157349 0.000000
v 4.184247 -4.157349 0.300000
v 3.505573 -2.800000 0.000000
v 3.505573 -2.800000 0.300000
v -5.322299 -2.800000 0.000000
v -5.322299 -2.800000 0.300000
v -5.482674 -2.791942 0.000000
v -5.482674 -2.791942 0.300000
v -5.641434 -2.767849 0.000000
v -5.641434 -2.767849 0.300000
v -5.796980 -2.727965 0.000000
v -5.796980 -2.727965 0.300000
v -5.947745 -2.672690 0.000000
v -5.947745 -2.672690 0.300000
v -6.092210 -2.602582 0.000000
v -6.092210 -2.602582 0.300000
v -6.228920 -2.518347 0.000000
v -6.228920 -2.518347 0.300000
v -6.356498 -2.420832 0.000000
v -6.356498 -2.420832 0.300000
v -6.473660 -2.311021 0.000000
v -6.473660 -2.311021 0.300000
v -6.579224 -2.190019 0.000000
v -6.579224 -2.190019 0.300000
v -6.672128 -2.059045 0.000000
v -6.672128 -2.059045 0.300000
v -6.751437 -1.919419 0.000000
v -6.751437 -1.919419 0.300000
v -6.816350 -1.772547 0.000000
v -6.816350 -1.772547 0.300000
v -6.866215 -1.619907 0.000000
v -6.866215 -1.619907 0.300000
v -6.900528 -1.463038 0.000000
v -6.900528 -1.463038 0.300000
v -7.267195 0.736962 0.000000
v -7.267195 0.736962 0.300000
v -7.286541 0.911965 0.000000
v -7.286541 0.911965 0.300000
v -7.286541 1.088035 0.000000
v -7.286541 1.088035 0.300000
v -7.267195 1.263038 0.000000
v -7.267195 1.263038 0.300000
v -7.193561 1.704845 0.000000
v -7.193561 1.704845 0.300000
v -7.160814 1.855910 0.000000
v -7.160814 1.855910 0.300000
v -7.113643 2.003110 0.000000
v -7.113643 2.003110 0.300000
v -7.052487 2.145071 0.000000
v -7.052487 2.145071 0.300000
v -6.977919 2.280468 0.000000
v -6.977919 2.280468 0.300000
v -6.890633 2.408039 0.000000
v -6.890633 2.408039 0.300000
v -6.791444 2.526591 0.000000
v -6.791444 2.526591 0.300000
v -6.681279 2.635018 0.000000
v -6.681279 2.635018 0.300000
v -6.561165 2.732309 0.000000
v -6.561165 2.732309 0.300000
v -6.432223 2.817556 0.000000
v -6.432223 2.817556 0.300000
v -6.295657 2.889963 0.000000
v -6.295657 2.889963 0.300000
v -6.152742 2.948853 0.000000
v -6.152742 2.948853 0.300000
v -6.004810 2.993678 0.000000
v -6.004810 2.993678 0.300000
v -5.853244 3.024019 0.000000
v -5.853244 3.024019 0.300000
v -5.699457 3.039593 0.000000
v -5.699457 3.039593 0.300000
v -5.544885 3.040255 0.000000
v -5.544885 3.040255 0.300000
v -5.390971 3.025998 0.000000
v -5.390971 3.025998 0.300000
v -5.239150 2.996956 0.000000
v -5.239150 2.996956 0.300000
v -5.090840 2.953399 0.000000
v -5.090840 2.953399 0.300000
v -4.947426 2.895734 0.000000
v -4.947426 2.895734 0.300000
v -4.810246 2.824499 0.000000
v -4.810246 2.824499 0.300000
v -4.680579 2.740359 0.000000
v -4.680579 2.740359 0.300000
v -4.559636 2.644100 0.000000
v -4.559636 2.644100 0.300000
v -4.448546 2.536619 0.000000
v -4.448546 2.536619 0.300000
v -4.348347 2.418921 0.000000
v -4.348347 2.418921 0.300000
v -4.259972 2.292103 0.000000
v -4.259972 2.292103 0.300000
v -4.184247 2.157348 0.000000
v -4.184247 2.157348 0.300000
v -3.505573 0.800000 0.000000
v -3.505573 0.800000 0.300000
vn 0.9864 0.1644 -0.0000
vn 0.9864 -0.1644 -0.0000
vn -0.8944 -0.4472 -0.0000
vn -0.8708 -0.4916 -0.0000
vn -0.8170 -0.5766 -0.0000
vn -0.7549 -0.6558 -0.0000
vn -0.6852 -0.7284 -0.0000
vn -0.6085 -0.7935 -0.0000
vn -0.5257 -0.8506 -0.0000
vn -0.4376 -0.8992 -0.0000
vn -0.3450 -0.9386 -0.0000
vn -0.2490 -0.9685 -0.0000
vn -0.1504 -0.9886 -0.0000
vn -0.0503 -0.9987 -0.0000
vn -0.0000 -1.0000 -0.0000
vn -0.9864 -0.1644 -0.0000
vn -0.9864 0.1644 -0.0000
vn 0.8944 0.4472 -0.0000
vn 0.8708 0.4916 -0.0000
vn 0.8170 0.5766 -0.0000
vn 0.7549 0.6558 -0.0000
vn 0.6852 0.7284 -0.0000
vn 0.6085 0.7935 -0.0000
vn 0.5257 0.8506 -0.0000
vn 0.4376 0.8992 -0.0000
vn 0.3450 0.9386 -0.0000
vn 0.2490 0.9685 -0.0000
vn 0.1504 0.9886 -0.0000
vn 0.0503 0.9987 -0.0000
vn -0.0000 1.0000 -0.0000
vn -0.0000 -0.0000 1.0000
vn -0.0502 -0.9987 -0.0000
vn -0.1500 -0.9887 -0.0000
vn -0.2484 -0.9687 -0.0000
vn -0.3442 -0.9389 -0.0000
vn -0.4366 -0.8997 -0.0000
vn -0.5246 -0.8514 -0.0000
vn -0.6073 -0.7945 -0.0000
vn -0.6838 -0.7296 -0.0000
vn -0.7535 -0.6574 -0.0000
vn -0.8156 -0.5786 -0.0000
vn -0.8695 -0.4939 -0.0000
vn -0.9146 -0.4042 -0.0000
vn -0.9506 -0.3105 -0.0000
vn -0.9769 -0.2137 -0.0000
vn -0.9939 -0.1099 -0.0000
vn -1.0000 -0.0000 -0.0000
vn -0.9939 0.1099 -0.0000
vn -0.9773 0.2118 -0.0000
vn -0.9523 0.3052 -0.0000
vn -0.9184 0.3956 -0.0000
vn -0.8759 0.4824 -0.0000
vn -0.8253 0.5647 -0.0000
vn -0.7670 0.6417 -0.0000
vn -0.7015 0.7127 -0.0000
vn -0.6294 0.7771 -0.0000
vn -0.5515 0.8342 -0.0000
vn -0.4684 0.8835 -0.0000
vn -0.3810 0.9246 -0.0000
vn -0.2900 0.9570 -0.0000
vn -0.1963 0.9805 -0.0000
vn -0.1008 0.9949 -0.0000
vn -0.0043 1.0000 -0.0000
vn 0.0922 0.9957 -0.0000
vn 0.1879 0.9822 -0.0000
vn 0.2818 0.9595 -0.0000
vn 0.3731 0.9278 -0.0000
vn 0.4608 0.8875 -0.0000
vn 0.5443 0.8389 -0.0000
vn 0.6227 0.7824 -0.0000
vn 0.6953 0.7187 -0.0000
vn 0.7614 0.6482 -0.0000
vn 0.8204 0.5717 -0.0000
vn 0.8718 0.4899 -0.0000
vn 0.0502 0.9987 -0.0000
vn 0.1500 0.9887 -0.0000
vn 0.2484 0.9687 -0.0000
vn 0.3442 0.9389 -0.0000
vn 0.4366 0.8997 -0.0000
vn 0.5246 0.8514 -0.0000
vn 0.6073 0.7945 -0.0000
vn 0.6838 0.7296 -0.0000
vn 0.7535 0.6574 -0.0000
vn 0.8156 0.5786 -0.0000
vn 0.8695 0.4939 -0.0000
vn 0.9146 0.4042 -0.0000
vn 0.9506 0.3105 -0.0000
vn 0.9769 0.2137 -0.0000
vn 0.9939 0.1099 -0.0000
vn 1.0000 -0.0000 -0.0000
vn 0.9939 -0.1099 -0.0000
vn 0.9773 -0.2118 -0.0000
vn 0.9523 -0.3052 -0.0000
vn 0.9184 -0.3956 -0.0000
vn 0.8759 -0.4824 -0.0000
vn 0.8253 -0.5647 -0.0000
vn 0.7670 -0.6417 -0.0000
vn 0.7015 -0.7127 -0.0000
vn 0.6294 -0.7771 -0.0000
vn 0.5515 -0.8342 -0.0000
vn 0.4684 -0.8835 -0.0000
vn 0.3810 -0.9246 -0.0000
vn 0.2900 -0.9570 -0.0000
vn 0.1963 -0.9805 -0.0000
vn 0.1008 -0.9949 -0.0000
vn 0.0043 -1.0000 -0.0000
vn -0.0922 -0.9957 -0.0000
vn -0.1879 -0.9822 -0.0000
vn -0.2818 -0.9595 -0.0000
vn -0.3731 -0.9278 -0.0000
vn -0.4608 -0.8875 -0.0000
vn -0.5443 -0.8389 -0.0000
vn -0.6227 -0.7824 -0.0000
vn -0.6953 -0.7187 -0.0000
vn -0.7614 -0.6482 -0.0000
vn -0.8204 -0.5717 -0.0000
vn -0.8718 -0.4899 -0.0000
vn -0.8708 -0.4917 -0.0000
vn -0.6839 -0.7296 -0.0000
vn -0.9773 0.2119 -0.0000
vn 0.6839 0.7296 -0.0000
vn 0.9773 -0.2119 -0.0000
s 0
f 2//1 3//1 1//1
f 4//2 5//2 3//2
f 6//3 7//3 5//3
f 8//4 9//4 7//4
f 10//5 11//5 9//5
f 12//6 13//6 11//6
f 14//7 15//7 13//7
f 16//8 17//8 15//8
f 18//9 19//9 17//9
f 20//10 21//10 19//10
f 22//11 23//11 21//11
f 24//12 25//12 23//12
f 26//13 27//13 25//13
f 28//14 29//14 27//14
f 30//15 31//15 29//15
f 32//16 33//16 31//16
f 34//17 35//17 33//17
f 36//18 37//18 35//18
f 38//19 39//19 37//19
f 40//20 41//20 39//20
f 42//21 43//21 41//21
f 44//22 45//22 43//22
f 46//23 47//23 45//23
f 48//24 49//24 47//24
f 50//25 51//25 49//25
f 52//26 53//26 51//26
f 54//27 55//27 53//27
f 56//28 57//28 55//28
f 58//29 59//29 57//29
f 60//30 61//30 59//30
f 61//31 2//31 1//31
f 65//15 64//15 63//15
f 67//32 66//32 65//32
f 69//33 68//33 67//33
f 71//34 70//34 69//34
f 73//35 72//35 71//35
f 75//36 74//36 73//36
f 77//37 76//37 75//37
f 79//38 78//38 77//38
f 81//39 80//39 79//39
f 83//40 82//40 81//40
f 85//41 84//41 83//41
f 87//42 86//42 85//42
f 89//43 88//43 87//43
f 91//44 90//44 89//44
f 93//45 92//45 91//45
f 95//16 94//16 93//16
f 97//46 96//46 95//46
f 99//47 98//47 97//47
f 101//48 100//48 99//48
f 103//17 102//17 101//17
f 105//49 104//49 103//49
f 107//50 106//50 105//50
f 109//51 108//51 107//51
f 111//52 110//52 109//52
f 113//53 112//53 111//53
f 115//54 114//54 113//54
f 117//55 116//55 115//55
f 119//56 118//56 117//56
f 121//57 120//57 119//57
f 123//58 122//58 121//58
f 125//59 124//59 123//59
f 127//60 126//60 125//60
f 129//61 128//61 127//61
f 131//62 130//62 129//62
f 133//63 132//63 131//63
f 135//64 134//64 133//64
f 137//65 136//65 135//65
f 139//66 138//66 137//66
f 141//67 140//67 139//67
f 143//68 142//68 141//68
f 145//69 144//69 143//69
f 147//70 146//70 145//70
f 149//71 148//71 147//71
f 151//72 150//72 149//72
f 153//73 152//73 151//73
f 155//74 154//74 153//74
f 157//18 156//18 155//18
f 159//30 158//30 157//30
f 161//75 160//75 159//75
f 163//76 162//76 161//76
f 165//77 164//77 163//77
f 167//78 166//78 165//78
f 169//79 168//79 167//79
f 171//80 170//80 169//80
f 173//81 172//81 171//81
f 175//82 174//82 173//82
f 177//83 176//83 175//83
f 179//84 178//84 177//84
f 181//85 180//85 179//85
f 183//86 182//86 181//86
f 185//87 184//87 183//87
f 187//88 186//88 185//88
f 189//1 188//1 187//1
f 191//89 190//89 189//89
f 193//90 192//90 191//90
f 195//91 194//91 193//91
f 197//2 196//2 195//2
f 199//92 198//92 197//92
f 201//93 200//93 199//93
f 203//94 202//94 201//94
f 205//95 204//95 203//95
f 207//96 206//96 205//96
f 209//97 208//97 207//97
f 211//98 210//98 209//98
f 213//99 212//99 211//99
f 215//100 214//100 213//100
f 217//101 216//101 215//101
f 219//102 218//102 217//102
f 221//103 220//103 219//103
f 223//104 222//104 221//104
f 225//105 224//105 223//105
f 227//106 226//106 225//106
f 229//107 228//107 227//107
f 231//108 230//108 229//108
f 233//109 232//109 231//109
f 235//110 234//110 233//110
f 237//111 236//111 235//111
f 239//112 238//112 237//112
f 241//113 240//113 239//113
f 243//114 242//114 241//114
f 245//115 244//115 243//115
f 247//116 246//116 245//116
f 249//117 248//117 247//117
f 251//3 250//3 249//3
f 251//31 64//31 63//31
f 2//1 4//1 3//1
f 4//2 6//2 5//2
f 6//3 8//3 7//3
f 8//118 10//118 9//118
f 10//5 12//5 11//5
f 12//6 14//6 13//6
f 14//7 16//7 15//7
f 16//8 18//8 17//8
f 18//9 20//9 19//9
f 20//10 22//10 21//10
f 22//11 24//11 23//11
f 24//12 26//12 25//12
f 26//13 28//13 27//13
f 28//14 30//14 29//14
f 30//15 32//15 31//15
f 32//16 34//16 33//16
f 34//17 36//17 35//17
f 36//18 38//18 37//18
f 38//19 40//19 39//19
f 40//20 42//20 41//20
f 42//21 44//21 43//21
f 44//22 46//22 45//22
f 46//23 48//23 47//23
f 48//24 50//24 49//24
f 50//25 52//25 51//25
f 52//26 54//26 53//26
f 54//27 56//27 55//27
f 56//28 58//28 57//28
f 58//29 60//29 59//29
f 60//30 62//30 61//30
f 61//31 62//31 2//31
f 65//15 66//15 64//15
f 67//32 68//32 66//32
f 69//33 70//33 68//33
f 71//34 72//34 70//34
f 73//35 74//35 72//35
f 75//36 76//36 74//36
f 77//37 78//37 76//37
f 79//38 80//38 78//38
f 81//119 82//119 80//119
f 83//40 84//40 82//40
f 85//41 86//41 84//41
f 87//42 88//42 86//42
f 89//43 90//43 88//43
f 91//44 92//44 90//44
f 93//45 94//45 92//45
f 95//16 96//16 94//16
f 97//46 98//46 96//46
f 99//47 100//47 98//47
f 101//48 102//48 100//48
f 103//17 104//17 102//17
f 105//120 106//120 104//120
f 107//50 108//50 106//50
f 109//51 110//51 108//51
f 111//52 112//52 110//52
f 113//53 114//53 112//53
f 115//54 116//54 114//54
f 117//55 118//55 116//55
f 119//56 120//56 118//56
f 121//57 122//57 120//57
f 123//58 124//58 122//58
f 125//59 126//59 124//59
f 127//60 128//60 126//60
f 129//61 130//61 128//61
f 131//62 132//62 130//62
f 133//63 134//63 132//63
f 135//64 136//64 134//64
f 137//65 138//65 136//65
f 139//66 140//66 138//66
f 141//67 142//67 140//67
f 143//68 144//68 142//68
f 145//69 146//69 144//69
f 147//70 148//70 146//70
f 149//71 150//71 148//71
f 151//72 152//72 150//72
f 153//73 154//73 152//73
f 155//74 156//74 154//74
f 157//18 158//18 156//18
f 159//30 160//30 158//30
f 161//75 162//75 160//75
f 163//76 164//76 162//76
f 165//77 166//77 164//77
f 167//78 168//78 166//78
f 169//79 170//79 168//79
f 171//80 172//80 170//80
f 173//81 174//81 172//81
f 175//121 176//121 174//121
f 177//83 178//83 176//83
f 179//84 180//84 178//84
f 181//85 182//85 180//85
f 183//86 184//86 182//86
f 185//87 186//87 184//87
f 187//88 188//88 186//88
f 189//1 190//1 188//1
f 191//89 192//89 190//89
f 193//90 194//90 192//90
f 195//91 196//91 194//91
f 197//2 198//2 196//2
f 199//122 200//122 198//122
f 201//93 202//93 200//93
f 203//94 204//94 202//94
f 205//95 206//95 204//95
f 207//96 208//96 206//96
f 209//97 210//97 208//97
f 211//98 212//98 210//98
f 213//99 214//99 212//99
f 215//100 216//100 214//100
f 217//101 218//101 216//101
f 219//102 220//102 218//102
f 221//103 222//103 220//103
f 223//104 224//104 222//104
f 225//105 226//105 224//105
f 227//106 228//106 226//106
f 229//107 230//107 228//107
f 231//108 232//108 230//108
f 233//109 234//109 232//109
f 235//110 236//110 234//110
f 237//111 238//111 236//111
f 239//112 240//112 238//112
f 241//113 242//113 240//113
f 243//114 244//114 242//114
f 245//115 246//115 244//115
f 247//116 248//116 246//116
f 249//117 250//117 248//117
f 251//3 252//3 250//3
f 251//31 252//31 64//31
